<?xml version="1.0" encoding="UTF-8"?>
<svg xmlns="http://www.w3.org/2000/svg" xmlns:xlink="http://www.w3.org/1999/xlink" width="10px" height="13px" viewBox="0 0 10 12" version="1.1">
<g id="surface1">
<path style=" stroke:none;fill-rule:nonzero;fill:white;fill-opacity:1;" d="M 0.0585938 11.96875 C 0.015625 11.925781 0.0117188 11.714844 0.0546875 11.671875 C 0.0820312 11.652344 0.183594 11.640625 0.507812 11.632812 C 0.890625 11.625 0.949219 11.617188 1.09375 11.570312 C 1.324219 11.496094 1.472656 11.410156 1.621094 11.257812 C 1.867188 11.007812 1.882812 10.90625 1.898438 9.257812 L 1.910156 7.988281 L 0.988281 7.988281 C 0.183594 7.988281 0.0664062 7.984375 0.0390625 7.957031 C -0.0117188 7.910156 -0.0117188 7.464844 0.0390625 7.417969 C 0.0664062 7.390625 0.183594 7.386719 0.988281 7.386719 L 1.902344 7.386719 L 1.902344 6.644531 L 0.988281 6.644531 C 0.183594 6.644531 0.0664062 6.640625 0.0390625 6.613281 C -0.0117188 6.566406 -0.0117188 6.121094 0.0390625 6.074219 C 0.0664062 6.046875 0.183594 6.042969 0.988281 6.042969 L 1.902344 6.042969 L 1.902344 4.0625 C 1.902344 1.640625 1.882812 1.25 1.746094 0.917969 C 1.664062 0.714844 1.410156 0.53125 1.09375 0.4375 C 1.003906 0.414062 0.859375 0.402344 0.519531 0.390625 C 0.152344 0.378906 0.0625 0.371094 0.046875 0.347656 C 0.0117188 0.296875 0.0195312 0.0742188 0.0585938 0.0390625 C 0.0898438 0.0117188 0.367188 0.0078125 2.796875 0.0078125 C 5.765625 0.0078125 5.917969 0.0117188 6.636719 0.128906 C 7.527344 0.273438 8.207031 0.539062 8.75 0.960938 C 9.042969 1.1875 9.359375 1.519531 9.53125 1.78125 C 9.71875 2.074219 9.78125 2.214844 9.886719 2.609375 C 10.042969 3.199219 10.003906 3.882812 9.785156 4.5 C 9.71875 4.6875 9.523438 5.046875 9.402344 5.214844 C 8.824219 6.007812 7.882812 6.476562 6.589844 6.617188 C 6.390625 6.636719 6.015625 6.644531 5.042969 6.644531 L 3.761719 6.644531 L 3.761719 7.386719 L 6.554688 7.386719 C 9.066406 7.386719 9.351562 7.390625 9.382812 7.417969 C 9.433594 7.464844 9.433594 7.910156 9.382812 7.957031 C 9.351562 7.984375 9.066406 7.988281 6.554688 7.988281 L 3.761719 7.988281 L 3.761719 9.015625 C 3.761719 10.363281 3.792969 10.769531 3.914062 11.066406 C 3.976562 11.214844 4.179688 11.410156 4.367188 11.496094 C 4.605469 11.605469 4.699219 11.621094 5.164062 11.632812 C 5.5 11.640625 5.605469 11.652344 5.628906 11.671875 C 5.671875 11.714844 5.671875 11.925781 5.625 11.96875 C 5.59375 11.996094 5.3125 12 2.84375 12 C 0.371094 12 0.0898438 11.996094 0.0585938 11.96875 Z M 5.769531 6.003906 C 6.238281 5.925781 6.671875 5.699219 7.046875 5.339844 C 7.410156 4.992188 7.632812 4.566406 7.722656 4.058594 C 7.769531 3.789062 7.773438 3.195312 7.726562 2.875 C 7.5625 1.742188 6.890625 1.035156 5.769531 0.820312 C 5.511719 0.769531 5.058594 0.75 4.742188 0.769531 C 4.464844 0.789062 3.929688 0.871094 3.816406 0.910156 L 3.761719 0.929688 L 3.761719 6.046875 L 4.695312 6.039062 C 5.273438 6.03125 5.679688 6.019531 5.769531 6.003906 Z M 5.769531 6.003906 "/>
</g>
</svg>
